<?xml version="1.0" encoding="UTF-8"?>
<svg width="107px" height="65px" viewBox="0 0 107 65" version="1.1" xmlns="http://www.w3.org/2000/svg" xmlns:xlink="http://www.w3.org/1999/xlink">
    <!-- Generator: Sketch 54.1 (76490) - https://sketchapp.com -->
    <title>popular-4</title>
    <desc>Created with Sketch.</desc>
    <g id="Styleguide" stroke="none" stroke-width="1" fill="none" fill-rule="evenodd" opacity="0.300000012">
        <g transform="translate(-768.000000, -2111.000000)" fill="#363636" fill-rule="nonzero" id="категории-товаров">
            <g transform="translate(41.000000, 1461.000000)">
                <g id="активные-категории-товаров" transform="translate(17.000000, 600.000000)">
                    <g id="popular-4" transform="translate(710.000000, 50.000000)">
                        <path d="M98.6774233,4 C99.4272229,5.44631104 99.8828857,7.09135185 99.8828857,8.83575754 L99.8828857,30.0155324 C99.8828857,34.6485455 96.7999329,38.5739601 92.6580875,39.9520205 C91.3369644,43.9537153 88.8911419,47.8349678 84.6306447,50.4224694 C75.9800306,55.6727491 53.5977133,55.277297 53.5239298,55.277297 C53.446158,55.277297 31.0768027,55.6737528 22.4261886,50.4224694 C18.2225246,47.8680894 15.7378161,44.0520765 14.4077194,40.1055844 C10.0026464,38.8921285 6.6744134,34.835231 6.6744134,30.0155324 L6.6744134,8.83676122 C6.6744134,7.14253982 7.100164,5.54266487 7.8100807,4.12646439 C4.15779861,5.03881466 0,6.85448203 0,10.3834408 C0,16.6494504 0,36.1651145 0,40.4769481 C0,50.7657299 11.8043592,65 53.5,65 C95.197635,65 107,50.7657299 107,40.4769481 C107,36.1651145 107,16.6494504 107,10.3834408 C106.999003,6.68586284 102.437389,4.86919179 98.6774233,4 Z" id="Shape"></path>
                        <path d="M20.1135727,39 L85.8874311,39 C91.4727332,39 96,34.440115 96,28.8183114 L96,10.1796679 C96,4.55887458 91.4727332,0 85.8874311,0 L20.1135727,0 C14.5282706,0 10,4.55786419 10,10.1796679 L10,28.8183114 C10,34.440115 14.5282706,39 20.1135727,39 Z M83.4892847,9.70781626 C84.3596041,9.70781626 85.0642917,10.4181196 85.0642917,11.2941268 C85.0642917,12.1691236 84.3596041,12.8794269 83.4892847,12.8794269 C82.6189654,12.8794269 81.9152815,12.1691236 81.9152815,11.2941268 C81.9152815,10.4171093 82.6189654,9.70781626 83.4892847,9.70781626 Z M83.4892847,13.7887769 C84.3596041,13.7887769 85.0642917,14.4990803 85.0642917,15.3730667 C85.0642917,16.2490738 84.3596041,16.9583668 83.4892847,16.9583668 C82.6189654,16.9583668 81.9152815,16.2490738 81.9152815,15.3730667 C81.9152815,14.4990803 82.6189654,13.7887769 83.4892847,13.7887769 Z M83.4892847,17.8697376 C84.3596041,17.8697376 85.0642917,18.5790305 85.0642917,19.4550377 C85.0642917,20.3300345 84.3596041,21.0403378 83.4892847,21.0403378 C82.6189654,21.0403378 81.9152815,20.3300345 81.9152815,19.4550377 C81.9152815,18.5790305 82.6189654,17.8697376 83.4892847,17.8697376 Z M83.4892847,21.7364958 C84.3596041,21.7364958 85.0642917,22.4478095 85.0642917,23.3217959 C85.0642917,24.1978031 84.3596041,24.9060856 83.4892847,24.9060856 C82.6189654,24.9060856 81.9152815,24.1978031 81.9152815,23.3217959 C81.9152815,22.4467991 82.6189654,21.7364958 83.4892847,21.7364958 Z M83.4892847,25.8174564 C84.3596041,25.8174564 85.0642917,26.5267494 85.0642917,27.4027565 C85.0642917,28.2767429 84.3596041,28.9870463 83.4892847,28.9870463 C82.6189654,28.9870463 81.9152815,28.2757325 81.9152815,27.4027565 C81.9152815,26.5267494 82.6189654,25.8174564 83.4892847,25.8174564 Z M79.4348212,9.70781626 C80.3051405,9.70781626 81.0088244,10.4181196 81.0088244,11.2941268 C81.0088244,12.1691236 80.3051405,12.8794269 79.4348212,12.8794269 C78.5665095,12.8794269 77.860818,12.1691236 77.860818,11.2941268 C77.860818,10.4171093 78.5665095,9.70781626 79.4348212,9.70781626 Z M79.4348212,25.8174564 C80.3051405,25.8174564 81.0088244,26.5267494 81.0088244,27.4027565 C81.0088244,28.2767429 80.3051405,28.9870463 79.4348212,28.9870463 C78.5665095,28.9870463 77.860818,28.2757325 77.860818,27.4027565 C77.860818,26.5267494 78.5665095,25.8174564 79.4348212,25.8174564 Z M75.3823653,9.70781626 C76.250677,9.70781626 76.9563685,10.4181196 76.9563685,11.2941268 C76.9563685,12.1691236 76.250677,12.8794269 75.3823653,12.8794269 C74.5120459,12.8794269 73.8073583,12.1691236 73.8073583,11.2941268 C73.8073583,10.4171093 74.5120459,9.70781626 75.3823653,9.70781626 Z M75.3823653,13.7887769 C76.250677,13.7887769 76.9563685,14.4990803 76.9563685,15.3730667 C76.9563685,16.2490738 76.250677,16.9583668 75.3823653,16.9583668 C74.5120459,16.9583668 73.8073583,16.2490738 73.8073583,15.3730667 C73.8073583,14.4990803 74.5120459,13.7887769 75.3823653,13.7887769 Z M75.3823653,17.8697376 C76.250677,17.8697376 76.9563685,18.5790305 76.9563685,19.4550377 C76.9563685,20.3300345 76.250677,21.0403378 75.3823653,21.0403378 C74.5120459,21.0403378 73.8073583,20.3300345 73.8073583,19.4550377 C73.8073583,18.5790305 74.5120459,17.8697376 75.3823653,17.8697376 Z M75.3823653,21.7364958 C76.250677,21.7364958 76.9563685,22.4478095 76.9563685,23.3217959 C76.9563685,24.1978031 76.250677,24.9060856 75.3823653,24.9060856 C74.5120459,24.9060856 73.8073583,24.1978031 73.8073583,23.3217959 C73.8073583,22.4467991 74.5120459,21.7364958 75.3823653,21.7364958 Z M75.3823653,25.8174564 C76.250677,25.8174564 76.9563685,26.5267494 76.9563685,27.4027565 C76.9563685,28.2767429 76.250677,28.9870463 75.3823653,28.9870463 C74.5120459,28.9870463 73.8073583,28.2757325 73.8073583,27.4027565 C73.8073583,26.5267494 74.5120459,25.8174564 75.3823653,25.8174564 Z M67.6990615,9.70781626 C68.5693809,9.70781626 69.2730647,10.4181196 69.2730647,11.2941268 C69.2730647,12.1691236 68.5693809,12.8794269 67.6990615,12.8794269 C66.8287422,12.8794269 66.1250584,12.1691236 66.1250584,11.2941268 C66.1240545,10.4171093 66.8307498,9.70781626 67.6990615,9.70781626 Z M67.6990615,17.8697376 C68.5693809,17.8697376 69.2730647,18.5790305 69.2730647,19.4550377 C69.2730647,20.3300345 68.5693809,21.0403378 67.6990615,21.0403378 C66.8287422,21.0403378 66.1250584,20.3300345 66.1250584,19.4550377 C66.1240545,18.5790305 66.8307498,17.8697376 67.6990615,17.8697376 Z M67.6990615,21.7910568 C68.5693809,21.7910568 69.2730647,22.4993394 69.2730647,23.3753465 C69.2730647,24.2493329 68.5693809,24.9606466 67.6990615,24.9606466 C66.8287422,24.9606466 66.1250584,24.2493329 66.1250584,23.3753465 C66.1240545,22.4993394 66.8307498,21.7910568 67.6990615,21.7910568 Z M67.6990615,25.8174564 C68.5693809,25.8174564 69.2730647,26.5267494 69.2730647,27.4027565 C69.2730647,28.2767429 68.5693809,28.9870463 67.6990615,28.9870463 C66.8287422,28.9870463 66.1250584,28.2757325 66.1250584,27.4027565 C66.1240545,26.5267494 66.8307498,25.8174564 67.6990615,25.8174564 Z M63.644598,9.70781626 C64.5149174,9.70781626 65.2206088,10.4181196 65.2206088,11.2941268 C65.2206088,12.1691236 64.5149174,12.8794269 63.644598,12.8794269 C62.7762863,12.8794269 62.069591,12.1691236 62.069591,11.2941268 C62.0685872,10.4171093 62.7762863,9.70781626 63.644598,9.70781626 Z M63.644598,17.8697376 C64.5149174,17.8697376 65.2206088,18.5790305 65.2206088,19.4550377 C65.2206088,20.3300345 64.5149174,21.0403378 63.644598,21.0403378 C62.7762863,21.0403378 62.069591,20.3300345 62.069591,19.4550377 C62.0685872,18.5790305 62.7762863,17.8697376 63.644598,17.8697376 Z M63.644598,25.8174564 C64.5149174,25.8174564 65.2206088,26.5267494 65.2206088,27.4027565 C65.2206088,28.2767429 64.5149174,28.9870463 63.644598,28.9870463 C62.7762863,28.9870463 62.069591,28.2757325 62.069591,27.4027565 C62.0685872,26.5267494 62.7762863,25.8174564 63.644598,25.8174564 Z M59.5911383,9.70781626 C60.45945,9.70781626 61.1661453,10.4181196 61.1661453,11.2941268 C61.1661453,12.1691236 60.45945,12.8794269 59.5911383,12.8794269 C58.7208189,12.8794269 58.0171351,12.1691236 58.0171351,11.2941268 C58.0161313,10.4171093 58.7208189,9.70781626 59.5911383,9.70781626 Z M59.5911383,13.7887769 C60.45945,13.7887769 61.1661453,14.4990803 61.1661453,15.3730667 C61.1661453,16.2490738 60.45945,16.9583668 59.5911383,16.9583668 C58.7208189,16.9583668 58.0171351,16.2490738 58.0171351,15.3730667 C58.0161313,14.4990803 58.7208189,13.7887769 59.5911383,13.7887769 Z M59.5911383,17.8697376 C60.45945,17.8697376 61.1661453,18.5790305 61.1661453,19.4550377 C61.1661453,20.3300345 60.45945,21.0403378 59.5911383,21.0403378 C58.7208189,21.0403378 58.0171351,20.3300345 58.0171351,19.4550377 C58.0161313,18.5790305 58.7208189,17.8697376 59.5911383,17.8697376 Z M59.5911383,25.8174564 C60.45945,25.8174564 61.1661453,26.5267494 61.1661453,27.4027565 C61.1661453,28.2767429 60.45945,28.9870463 59.5911383,28.9870463 C58.7208189,28.9870463 58.0171351,28.2757325 58.0171351,27.4027565 C58.0161313,26.5267494 58.7208189,25.8174564 59.5911383,25.8174564 Z M51.2693996,9.70781626 C52.1397189,9.70781626 52.8444066,10.4181196 52.8444066,11.2941268 C52.8444066,12.1691236 52.1397189,12.8794269 51.2693996,12.8794269 C50.3990802,12.8794269 49.6953964,12.1691236 49.6953964,11.2941268 C49.6943926,10.4171093 50.3990802,9.70781626 51.2693996,9.70781626 Z M51.2693996,13.7887769 C52.1397189,13.7887769 52.8444066,14.4990803 52.8444066,15.3730667 C52.8444066,16.2490738 52.1397189,16.9583668 51.2693996,16.9583668 C50.3990802,16.9583668 49.6953964,16.2490738 49.6953964,15.3730667 C49.6943926,14.4990803 50.3990802,13.7887769 51.2693996,13.7887769 Z M51.2693996,17.8697376 C52.1397189,17.8697376 52.8444066,18.5790305 52.8444066,19.4550377 C52.8444066,20.3300345 52.1397189,21.0403378 51.2693996,21.0403378 C50.3990802,21.0403378 49.6953964,20.3300345 49.6953964,19.4550377 C49.6943926,18.5790305 50.3990802,17.8697376 51.2693996,17.8697376 Z M51.2693996,21.7910568 C52.1397189,21.7910568 52.8444066,22.4993394 52.8444066,23.3753465 C52.8444066,24.2493329 52.1397189,24.9606466 51.2693996,24.9606466 C50.3990802,24.9606466 49.6953964,24.2493329 49.6953964,23.3753465 C49.6943926,22.4993394 50.3990802,21.7910568 51.2693996,21.7910568 Z M51.2693996,25.8174564 C52.1397189,25.8174564 52.8444066,26.5267494 52.8444066,27.4027565 C52.8444066,28.2767429 52.1397189,28.9870463 51.2693996,28.9870463 C50.3990802,28.9870463 49.6953964,28.2757325 49.6953964,27.4027565 C49.6943926,26.5267494 50.3990802,25.8174564 51.2693996,25.8174564 Z M47.214936,13.7887769 C48.0852554,13.7887769 48.7889392,14.4990803 48.7889392,15.3730667 C48.7889392,16.2490738 48.0852554,16.9583668 47.214936,16.9583668 C46.3446167,16.9583668 45.639929,16.2490738 45.639929,15.3730667 C45.639929,14.4990803 46.3436128,13.7887769 47.214936,13.7887769 Z M38.6803857,13.5745745 C39.5486974,13.5745745 40.2553927,14.2848778 40.2553927,15.1588642 C40.2553927,16.0348714 39.5486974,16.7441644 38.6803857,16.7441644 C37.8100663,16.7441644 37.103371,16.033861 37.103371,15.1588642 C37.103371,14.2848778 37.8090625,13.5745745 38.6803857,13.5745745 Z M38.6803857,17.6545247 C39.5486974,17.6545247 40.2553927,18.3648281 40.2553927,19.2408353 C40.2553927,20.115832 39.5486974,20.8271458 38.6803857,20.8271458 C37.8100663,20.8271458 37.103371,20.115832 37.103371,19.2408353 C37.103371,18.3648281 37.8090625,17.6545247 38.6803857,17.6545247 Z M34.6259221,9.49260344 C35.4942338,9.49260344 36.1999253,10.2029068 36.1999253,11.078914 C36.1999253,11.9539107 35.49323,12.6632037 34.6259221,12.6632037 C33.7556028,12.6632037 33.0509151,11.9529003 33.0509151,11.078914 C33.0509151,10.2029068 33.7545989,9.49260344 34.6259221,9.49260344 Z M34.6259221,13.5745745 C35.4942338,13.5745745 36.1999253,14.2848778 36.1999253,15.1588642 C36.1999253,16.0348714 35.49323,16.7441644 34.6259221,16.7441644 C33.7556028,16.7441644 33.0509151,16.033861 33.0509151,15.1588642 C33.0509151,14.2848778 33.7545989,13.5745745 34.6259221,13.5745745 Z M34.6259221,17.6545247 C35.4942338,17.6545247 36.1999253,18.3648281 36.1999253,19.2408353 C36.1999253,20.115832 35.49323,20.8271458 34.6259221,20.8271458 C33.7556028,20.8271458 33.0509151,20.115832 33.0509151,19.2408353 C33.0509151,18.3648281 33.7545989,17.6545247 34.6259221,17.6545247 Z M34.6259221,21.7364958 C35.4942338,21.7364958 36.1999253,22.4478095 36.1999253,23.3217959 C36.1999253,24.1978031 35.49323,24.9060856 34.6259221,24.9060856 C33.7556028,24.9060856 33.0509151,24.1978031 33.0509151,23.3217959 C33.0509151,22.4467991 33.7545989,21.7364958 34.6259221,21.7364958 Z M30.3556354,13.5745745 C31.2259548,13.5745745 31.9306425,14.2848778 31.9306425,15.1588642 C31.9306425,16.0348714 31.2259548,16.7441644 30.3556354,16.7441644 C29.4853161,16.7441644 28.7816323,16.033861 28.7816323,15.1588642 C28.7816323,14.2848778 29.4853161,13.5745745 30.3556354,13.5745745 Z M30.3556354,17.6545247 C31.2259548,17.6545247 31.9306425,18.3648281 31.9306425,19.2408353 C31.9306425,20.115832 31.2259548,20.8271458 30.3556354,20.8271458 C29.4853161,20.8271458 28.7816323,20.115832 28.7816323,19.2408353 C28.7816323,18.3648281 29.4853161,17.6545247 30.3556354,17.6545247 Z M30.3556354,21.7364958 C31.2259548,21.7364958 31.9306425,22.4478095 31.9306425,23.3217959 C31.9306425,24.1978031 31.2259548,24.9060856 30.3556354,24.9060856 C29.4853161,24.9060856 28.7816323,24.1978031 28.7816323,23.3217959 C28.7816323,22.4467991 29.4853161,21.7364958 30.3556354,21.7364958 Z M30.3556354,25.8174564 C31.2259548,25.8174564 31.9306425,26.5267494 31.9306425,27.4027565 C31.9306425,28.2767429 31.2259548,28.9870463 30.3556354,28.9870463 C29.4853161,28.9870463 28.7816323,28.2757325 28.7816323,27.4027565 C28.7816323,26.5267494 29.4853161,25.8174564 30.3556354,25.8174564 Z M25.8745448,9.49260344 C26.7448641,9.49260344 27.4515594,10.2029068 27.4515594,11.078914 C27.4515594,11.9539107 26.7448641,12.6632037 25.8745448,12.6632037 C25.0062331,12.6632037 24.2995378,11.9529003 24.2995378,11.078914 C24.2995378,10.2029068 25.0062331,9.49260344 25.8745448,9.49260344 Z M25.8745448,13.5745745 C26.7448641,13.5745745 27.4515594,14.2848778 27.4515594,15.1588642 C27.4515594,16.0348714 26.7448641,16.7441644 25.8745448,16.7441644 C25.0062331,16.7441644 24.2995378,16.033861 24.2995378,15.1588642 C24.2995378,14.2848778 25.0062331,13.5745745 25.8745448,13.5745745 Z M25.8745448,17.6545247 C26.7448641,17.6545247 27.4515594,18.3648281 27.4515594,19.2408353 C27.4515594,20.115832 26.7448641,20.8271458 25.8745448,20.8271458 C25.0062331,20.8271458 24.2995378,20.115832 24.2995378,19.2408353 C24.2995378,18.3648281 25.0062331,17.6545247 25.8745448,17.6545247 Z M25.8745448,21.7364958 C26.7448641,21.7364958 27.4515594,22.4478095 27.4515594,23.3217959 C27.4515594,24.1978031 26.7448641,24.9060856 25.8745448,24.9060856 C25.0062331,24.9060856 24.2995378,24.1978031 24.2995378,23.3217959 C24.2995378,22.4467991 25.0062331,21.7364958 25.8745448,21.7364958 Z M21.8220889,13.5745745 C22.6904006,13.5745745 23.3970959,14.2848778 23.3970959,15.1588642 C23.3970959,16.0348714 22.6904006,16.7441644 21.8220889,16.7441644 C20.9517695,16.7441644 20.2470819,16.033861 20.2470819,15.1588642 C20.2470819,14.2848778 20.9517695,13.5745745 21.8220889,13.5745745 Z M21.8220889,17.6545247 C22.6904006,17.6545247 23.3970959,18.3648281 23.3970959,19.2408353 C23.3970959,20.115832 22.6904006,20.8271458 21.8220889,20.8271458 C20.9517695,20.8271458 20.2470819,20.115832 20.2470819,19.2408353 C20.2470819,18.3648281 20.9517695,17.6545247 21.8220889,17.6545247 Z" id="Shape"></path>
                    </g>
                </g>
            </g>
        </g>
    </g>
</svg>